<svg version="1.2" baseProfile="tiny" xmlns="http://www.w3.org/2000/svg" viewBox="0 0 200 200" overflow="scroll"><path fill="none" stroke="#FFF" stroke-width="3" stroke-linecap="round" stroke-linejoin="round" stroke-miterlimit="10" d="M77.6 124.5c5.6-6.4 11.1-13.4 15.4-20.8 3.2-5.5 5.7-11.1 7-17.5.4-2.1.6-7.5-3-6.6-2.9.7-5.2 5-6.6 7.3-5.9 9.8-10 21.2-12.1 32.4-.8 4.6-1.5 9.8-.2 14.4.8 2.8 2.7 6.7 6.1 4.6 4-2.4 6.5-8.2 8.2-12.4 1.4-3.4 4-8.7 7.5-9.9-4 3.1-10.6 12.2-6.1 17.5 1.8 2.2 5.1 1.4 7.3.1 3.4-2 5.5-5.8 6.6-9.5.6-2.2 2.4-8.4-.4-10-2.1-1.1-3.9 1.5-4.4 3.2-.8 2.9.6 6.9 3.2 8.6 2 1.3 4.1.5 5.9-.8 2.7-2 4.7-4.8 6.7-7.4 1.7-2.1 3.4-5.2 5.9-6.5-3.9 1.9-6.2 6.3-7.1 10.3-.5 2.4-1.1 6.9 1.7 8.2 3.4 1.6 7.7-2.2 9.5-4.6 2.5-3.3 5.5-10 3.4-14.1-1.9-3.6-4.8-.2-4.9 2.9-.1 3 .9 9.5 5.1 8.8 3.5-.6 6.5-4.8 8.4-7.5 2.3-3.2 3.8-7 6.5-9.8 4.5-4.5 1.1 6.6.8 8-.8 3.7-1.5 7.7-1.3 11.5 3.1-8 6.9-14.1 11.9-20.1.4-.5 2-2.4 3.5-2.1 1.8.4.9 4.3.7 6.3-.6 5.1-1.5 8.9-2.6 14 2.5-5.9 4.8-10.9 8.2-15.9 1.4-2.1 4.5-5.8 7.1-6.5 3.5-1 1.9 3.1 1.1 6.2-.5 2.2-3.8 11.7.2 12 2.8.2 5.5-2.8 6.8-4.8 5.9-8.9 4-21.4 1.9-31.2-5.1-24.5-20.6-45.6-42.5-57.9-24.4-13.6-55.6-13.7-80.3-.8-26.8 14-45.5 43.8-45.6 74.1"/></svg>