<svg version="1.2" baseProfile="tiny" xmlns="http://www.w3.org/2000/svg" viewBox="0 0 200 200" overflow="scroll"><path fill="none" stroke="#FFF" stroke-width="3" stroke-linecap="round" stroke-linejoin="round" stroke-miterlimit="10" d="M64.6 80.3c-7 6.3-11.1 15.5-15 23.9-4.4 9.6-8 19.9-13.3 29.1-4.6 7.8-9 16.8-18 19.8-7.6 2.5-13.7-3.9-14.1-10.9-1.1-21.3 14.9-40.6 32.5-50.2 7.7-4.2 17.5-8.1 26.4-6.3 6.8 1.3 11.9 7.8 9.7 14.7-2.4 7.6-11.3 12-18 15-4.9 2.2-10 4.8-15.4 5.2 2.3-3.1 22.3-7.9 28.3-.3 4.2 5.3 1.6 13.9-2.8 18.2-5 5-13.3 11.3-31.3 11.8"/></svg>